<svg xmlns="http://www.w3.org/2000/svg" xmlns:xlink="http://www.w3.org/1999/xlink" version="1.1" x="0px" y="0px" viewBox="0 0 96 120" style="enable-background:new 0 0 96 96;" xml:space="preserve"><path d="M48,6.268C24.989,6.268,6.268,24.989,6.268,48S24.989,89.732,48,89.732S89.732,71.011,89.732,48S71.011,6.268,48,6.268z   M48,85.757C27.18,85.757,10.243,68.82,10.243,48S27.18,10.243,48,10.243S85.757,27.18,85.757,48S68.82,85.757,48,85.757z   M70.688,48c0,1.098-0.89,1.987-1.987,1.987H49.987V68.7c0,1.098-0.89,1.987-1.987,1.987s-1.987-0.89-1.987-1.987V49.987H27.3  c-1.097,0-1.987-0.89-1.987-1.987s0.89-1.987,1.987-1.987h18.713V27.3c0-1.098,0.89-1.987,1.987-1.987s1.987,0.89,1.987,1.987  v18.713H68.7C69.798,46.013,70.688,46.902,70.688,48z"/></svg>