<svg xmlns="http://www.w3.org/2000/svg" xmlns:xlink="http://www.w3.org/1999/xlink" version="1.1" x="0px" y="0px" viewBox="0 0 96 120" enable-background="new 0 0 96 96" xml:space="preserve"><g><polygon points="60.348,31.716 48,44.064 35.651,31.716 31.716,35.653 44.064,48 31.716,60.348 35.651,64.284 48,51.937    60.348,64.284 64.284,60.348 51.937,48 64.284,35.653  "/><path d="M48,8C25.944,8,8,25.944,8,48c0,22.057,17.944,40,40,40c22.057,0,40-17.943,40-40C88,25.944,70.057,8,48,8z M48,85.143   C27.519,85.143,10.857,68.48,10.857,48c0-20.481,16.662-37.143,37.143-37.143c20.48,0,37.143,16.662,37.143,37.143   C85.143,68.48,68.48,85.143,48,85.143z"/></g></svg>