<svg xmlns="http://www.w3.org/2000/svg" xmlns:xlink="http://www.w3.org/1999/xlink" xmlns:serif="http://www.serif.com/" viewBox="0 0 48 60" version="1.1" xml:space="preserve" style="" x="0px" y="0px" fill-rule="evenodd" clip-rule="evenodd" stroke-linejoin="round" stroke-miterlimit="2"><g transform="matrix(1,0,0,1,-336,-48)"><g><g transform="matrix(1,0,0,1,2,2)"><circle cx="358" cy="60" r="9"/></g><g transform="matrix(1,0,0,1,0,-2)"><path d="M375,93C376.105,93 377,92.105 377,91C377,90.449 377,90 377,90C377,86.022 375.42,82.206 372.607,79.393C369.794,76.58 365.978,75 362,75L358,75C354.022,75 350.206,76.58 347.393,79.393C344.58,82.206 343,86.022 343,90L343,91C343,92.105 343.895,93 345,93L375,93Z"/></g></g></g></svg>