<svg xmlns="http://www.w3.org/2000/svg" viewBox="0 0 24 30" fill="none" x="0px" y="0px"><path fill-rule="evenodd" clip-rule="evenodd" d="M12 10C12.5523 10 13 10.4477 13 11V16.6C13 17.1523 12.5523 17.6 12 17.6C11.4477 17.6 11 17.1523 11 16.6V11C11 10.4477 11.4477 10 12 10Z" fill="black"/><path fill-rule="evenodd" clip-rule="evenodd" d="M12 4C7.58172 4 4 7.58172 4 12C4 16.4183 7.58172 20 12 20C16.4183 20 20 16.4183 20 12C20 7.58172 16.4183 4 12 4ZM2 12C2 6.47715 6.47715 2 12 2C17.5228 2 22 6.47715 22 12C22 17.5228 17.5228 22 12 22C6.47715 22 2 17.5228 2 12Z" fill="black"/><path d="M13 7.4C13 7.95228 12.5523 8.4 12 8.4C11.4477 8.4 11 7.95228 11 7.4C11 6.84772 11.4477 6.4 12 6.4C12.5523 6.4 13 6.84772 13 7.4Z" fill="black"/></svg>