<svg xmlns:dc="http://purl.org/dc/elements/1.1/" xmlns:cc="http://creativecommons.org/ns#" xmlns:rdf="http://www.w3.org/1999/02/22-rdf-syntax-ns#" xmlns:svg="http://www.w3.org/2000/svg" xmlns="http://www.w3.org/2000/svg" xmlns:sodipodi="http://sodipodi.sourceforge.net/DTD/sodipodi-0.dtd" xmlns:inkscape="http://www.inkscape.org/namespaces/inkscape" version="1.1" x="0px" y="0px" viewBox="0 0 100 125"><g transform="translate(0,-952.36218)"><path style="text-indent:0;text-transform:none;direction:ltr;block-progression:tb;baseline-shift:baseline;color:#000000;enable-background:accumulate;" d="m 16,969.34911 c -6.0421151,0 -11,4.95887 -11,11.00218 l 0,32.00631 c 0,6.0433 4.9578713,11.0022 11,11.0022 l 14.5,0 -3.28125,7.8453 a 3.0003,3.0008945 0 0 0 4.3125,3.7195 l 19.28125,-11.5648 33.1875,0 c 6.042129,0 11,-4.9589 11,-11.0022 l 0,-32.00631 c 0,-6.04331 -4.957885,-11.00218 -11,-11.00218 l -34,0 -34,0 z m 0,6.00118 34,0 34,0 c 2.821949,0 5,2.17849 5,5.001 l 0,32.00631 c 0,2.8225 -2.178065,5.001 -5,5.001 l -34,0 a 3.0003,3.0008945 0 0 0 -1.53125,0.4063 l -12.15625,7.314 1.46875,-3.5632 A 3.0003,3.0008945 0 0 0 35,1017.3586 l -19,0 c -2.821935,0 -5,-2.1785 -5,-5.001 l 0,-32.00631 c 0,-2.82251 2.178051,-5.001 5,-5.001 z" fill="#000000" fill-opacity="1" stroke="none" marker="none" visibility="visible" display="inline" overflow="visible"/></g></svg>