<svg xmlns:dc="http://purl.org/dc/elements/1.1/" xmlns:cc="http://creativecommons.org/ns#" xmlns:rdf="http://www.w3.org/1999/02/22-rdf-syntax-ns#" xmlns:svg="http://www.w3.org/2000/svg" xmlns="http://www.w3.org/2000/svg" xmlns:sodipodi="http://sodipodi.sourceforge.net/DTD/sodipodi-0.dtd" xmlns:inkscape="http://www.inkscape.org/namespaces/inkscape" version="1.1" x="0px" y="0px" viewBox="0 0 100 125"><g transform="translate(0,-952.36218)"><path style="font-size:medium;font-style:normal;font-variant:normal;font-weight:normal;font-stretch:normal;text-indent:0;text-align:start;text-decoration:none;line-height:normal;letter-spacing:normal;word-spacing:normal;text-transform:none;direction:ltr;block-progression:tb;writing-mode:lr-tb;text-anchor:start;baseline-shift:baseline;opacity:1;color:#000000;fill:#000000;fill-opacity:1;stroke:none;stroke-width:11.47058868000000100;marker:none;visibility:visible;display:inline;overflow:visible;enable-background:accumulate;font-family:Sans;-inkscape-font-specification:Sans" d="M 38.875 5 A 3.0003 3.0003 0 0 0 37.75 5.28125 L 26.75 10.28125 A 3.0003 3.0003 0 0 0 25.0625 13.625 L 27.15625 23.59375 C 25.869686 24.70616 24.675428 25.90036 23.5625 27.1875 L 13.625 25.09375 A 3.0003 3.0003 0 0 0 10.28125 26.78125 L 5.28125 37.78125 A 3.0003 3.0003 0 0 0 6.28125 41.46875 L 15.125 47.71875 C 15.0754 48.47785 15 49.2255 15 50 C 15 50.7801 15.07492 51.5413 15.125 52.3125 L 6.28125 58.5625 A 3.0003 3.0003 0 0 0 5.28125 62.25 L 10.28125 73.25 A 3.0003 3.0003 0 0 0 13.625 74.9375 L 23.5625 72.84375 C 24.675266 74.13095 25.869378 75.325 27.15625 76.4375 L 25.0625 86.40625 A 3.0003 3.0003 0 0 0 26.75 89.75 L 37.75 94.75 A 3.0003 3.0003 0 0 0 41.4375 93.75 L 47.6875 84.875 C 48.458607 84.925 49.219759 85 50 85 C 50.780242 85 51.541393 84.925 52.3125 84.875 L 58.5625 93.75 A 3.0003 3.0003 0 0 0 62.25 94.75 L 73.25 89.75 A 3.0003 3.0003 0 0 0 74.9375 86.40625 L 72.84375 76.4375 C 74.130622 75.325 75.324734 74.13095 76.4375 72.84375 L 86.375 74.9375 A 3.0003 3.0003 0 0 0 89.71875 73.25 L 94.71875 62.25 A 3.0003 3.0003 0 0 0 93.71875 58.5625 L 84.875 52.3125 C 84.92508 51.5413 85 50.7801 85 50 C 85 49.2255 84.9246 48.47785 84.875 47.71875 L 93.71875 41.46875 A 3.0003 3.0003 0 0 0 94.71875 37.78125 L 89.71875 26.78125 A 3.0003 3.0003 0 0 0 86.375 25.09375 L 76.4375 27.1875 C 75.324572 25.90036 74.130314 24.70616 72.84375 23.59375 L 74.9375 13.625 A 3.0003 3.0003 0 0 0 73.25 10.28125 L 62.25 5.28125 A 3.0003 3.0003 0 0 0 58.5625 6.28125 L 52.3125 15.15625 C 51.544395 15.09695 50.807934 15 50 15 C 49.192066 15 48.455605 15.0969 47.6875 15.15625 L 41.4375 6.28125 A 3.0003 3.0003 0 0 0 38.875 5 z M 38 11.75 L 43.78125 19.96875 A 3.0003 3.0003 0 0 0 46.5625 21.21875 C 47.731163 21.08132 48.885275 21 50 21 C 51.114726 21 52.268836 21.0813 53.4375 21.21875 A 3.0003 3.0003 0 0 0 56.21875 19.96875 L 62 11.75 L 68.5625 14.71875 L 66.59375 24.0625 A 3.0003 3.0003 0 0 0 67.6875 27.0625 C 69.661593 28.58692 71.446735 30.37101 72.96875 32.34375 A 3.0003 3.0003 0 0 0 75.96875 33.4375 L 85.28125 31.46875 L 88.25 38.03125 L 80.0625 43.8125 A 3.0003 3.0003 0 0 0 78.8125 46.59375 C 78.944048 47.71562 79 48.8417 79 50 C 79 51.163 78.94403 52.3186 78.8125 53.4375 A 3.0003 3.0003 0 0 0 80.0625 56.21875 L 88.25 62 L 85.28125 68.5625 L 75.96875 66.59375 A 3.0003 3.0003 0 0 0 72.96875 67.6875 C 71.444898 69.6626 69.663376 71.44355 67.6875 72.96875 A 3.0003 3.0003 0 0 0 66.59375 75.96875 L 68.5625 85.3125 L 62 88.28125 L 56.21875 80.0625 A 3.0003 3.0003 0 0 0 53.4375 78.8125 C 52.318261 78.9441 51.163632 79 50 79 C 48.836369 79 47.681738 78.944 46.5625 78.8125 A 3.0003 3.0003 0 0 0 43.78125 80.0625 L 38 88.28125 L 31.4375 85.3125 L 33.40625 75.96875 A 3.0003 3.0003 0 0 0 32.3125 72.96875 C 30.336624 71.44355 28.555102 69.6626 27.03125 67.6875 A 3.0003 3.0003 0 0 0 24.03125 66.59375 L 14.71875 68.5625 L 11.75 62 L 19.9375 56.21875 A 3.0003 3.0003 0 0 0 21.1875 53.4375 C 21.055972 52.3186 21 51.163 21 50 C 21 48.8417 21.05595 47.71562 21.1875 46.59375 A 3.0003 3.0003 0 0 0 19.9375 43.8125 L 11.75 38.03125 L 14.71875 31.46875 L 24.03125 33.4375 A 3.0003 3.0003 0 0 0 27.03125 32.34375 C 28.553265 30.37101 30.338407 28.58692 32.3125 27.0625 A 3.0003 3.0003 0 0 0 33.40625 24.0625 L 31.4375 14.71875 L 38 11.75 z M 50 30 C 38.989843 30 30 38.98988 30 50 C 30 61.0102 38.989843 70.03125 50 70.03125 C 61.010157 70.03125 70 61.0102 70 50 C 70 38.98988 61.010157 30 50 30 z M 50 36.03125 C 57.76752 36.03125 64 42.23252 64 50 C 64 57.7676 57.76752 64 50 64 C 42.23248 64 36 57.7676 36 50 C 36 42.23252 42.23248 36.03125 50 36.03125 z " transform="translate(0,952.36218)"/></g></svg>