<?xml version="1.0" encoding="iso-8859-1"?><!-- Generator: Adobe Illustrator 22.1.0, SVG Export Plug-In . SVG Version: 6.00 Build 0)  --><svg xmlns="http://www.w3.org/2000/svg" xmlns:xlink="http://www.w3.org/1999/xlink" viewBox="0 0 50 50" width="50px" height="50px"><line style="fill:none;stroke:#000000;stroke-width:2;stroke-linecap:round;stroke-linejoin:round;stroke-miterlimit:10;" x1="11" y1="15" x2="27" y2="15"/><line style="fill:none;stroke:#000000;stroke-width:2;stroke-linecap:round;stroke-linejoin:round;stroke-miterlimit:10;" x1="11" y1="21" x2="20" y2="21"/><line style="fill:none;stroke:#000000;stroke-width:2;stroke-linecap:round;stroke-linejoin:round;stroke-miterlimit:10;" x1="24" y1="21" x2="27" y2="21"/><path style="fill:none;stroke:#000000;stroke-width:2;stroke-linejoin:round;stroke-miterlimit:10;" d="M19,3C9.611,3,2,9.716,2,18c0,4.256,2.018,8.089,5.244,10.819l-0.022,0.113c-0.865,3.766-5.193,6.125-5.193,6.125S2.854,36,5.329,36c6.569,0,9.342-2.855,9.703-3.26l0.143-0.135C16.406,32.855,17.683,33,19,33c9.389,0,17-6.716,17-15S28.389,3,19,3z"/><path d="M48.451,45.181c-0.038-0.021-3.606-2.011-4.574-5.016C47.186,37.158,49,33.217,49,29c0-6.4-4.259-11.919-10.382-14.476c0.166,0.761,0.262,1.543,0.318,2.336C43.746,19.277,47,23.808,47,29c0,3.816-1.736,7.388-4.89,10.055c-0.277,0.234-0.405,0.601-0.335,0.957l0.029,0.145c0.606,2.639,2.657,4.616,4.124,5.736C45.587,45.957,45.172,46,44.671,46c-6.179,0-8.689-2.625-9.017-2.988l-0.143-0.135c-0.187-0.177-0.433-0.272-0.686-0.272c-0.066,0-0.133,0.007-0.199,0.02C33.399,42.874,32.179,43,31,43c-5.953,0-11.147-2.865-13.902-7.097c-0.332-0.03-0.663-0.056-0.997-0.102c-0.278,0.215-0.622,0.448-0.998,0.684C18.13,41.545,24.117,45,31,45c1.141,0,2.314-0.105,3.493-0.314C35.473,45.634,38.534,48,44.671,48c2.788,0,3.865-1.069,4.052-1.284c0.2-0.228,0.284-0.534,0.231-0.833C48.902,45.585,48.717,45.326,48.451,45.181z"/></svg>