<svg width="16" height="16" viewBox="0 0 26 27" fill="none" xmlns="http://www.w3.org/2000/svg">
<path id="Vector" d="M10.2 0.328125C4.57266 0.328125 0 4.90078 0 10.5281C0 16.1555 4.57266 20.7281 10.2 20.7281C12.4266 20.7281 14.4844 20.0109 16.1625 18.7969L24.0563 26.6719L25.7438 24.9844L17.9438 17.1656C19.4766 15.3797 20.4 13.0617 20.4 10.5281C20.4 4.90078 15.8273 0.328125 10.2 0.328125ZM10.2 1.52812C15.1781 1.52812 19.2 5.55 19.2 10.5281C19.2 15.5063 15.1781 19.5281 10.2 19.5281C5.22188 19.5281 1.2 15.5063 1.2 10.5281C1.2 5.55 5.22188 1.52812 10.2 1.52812Z" fill="#B7B7E7"/>
</svg>
