<svg width="100" height="100" viewBox="0 0 100 100" fill="none" xmlns="http://www.w3.org/2000/svg">
<path d="M50 41C43.9375 41 39 44.5268 39 48.8571V53.0312C36.5273 54.9425 35 57.4844 35 60.2857C35 66.1953 41.7266 71 50 71C58.2734 71 65 66.1953 65 60.2857C65 57.4844 63.4727 54.9425 61 53.0312V48.8571C61 44.5268 56.0625 41 50 41ZM50 42.4286C54.9844 42.4286 59 45.2969 59 48.8571V51.7366C56.4883 50.3834 53.3789 49.5714 50 49.5714C46.6211 49.5714 43.5117 50.3834 41 51.7366V48.8571C41 45.2969 45.0156 42.4286 50 42.4286ZM50 51C57.1914 51 63 55.149 63 60.2857C63 65.4224 57.1914 69.5714 50 69.5714C42.8086 69.5714 37 65.4224 37 60.2857C37 55.149 42.8086 51 50 51ZM50 58.1429C48.3438 58.1429 47 59.1027 47 60.2857C47 61.2148 47.8398 61.9989 49 62.2946V63.8571C49 64.2506 49.4492 64.5714 50 64.5714C50.5508 64.5714 51 64.2506 51 63.8571V62.2946C52.1602 61.9989 53 61.2148 53 60.2857C53 59.1027 51.6562 58.1429 50 58.1429Z" fill="#FBFBFB"/>
<path d="M40.5242 10C23.8555 10 10 22.6574 10 38.575C10 46.2177 13.2685 53.1572 18.4533 58.2784L18.2902 59.1166C17.1214 62.6964 14.247 64.7208 12.5414 65.3671C11.5493 65.7365 10.7271 66.2976 10.2718 67.2778C9.82332 68.2509 10.0951 69.6005 10.7747 70.3036C12.3647 71.9728 14.4305 71.8095 15.939 71.8237C21.6131 71.8947 28.2996 68.7836 32.3495 66.667L32.3971 66.6457L33.7833 65.8075L33.2533 65.637L33.3145 65.6512C35.5705 66.1982 37.9352 66.3686 40.2592 66.3686C54.9165 66.3686 67.5285 57.213 70.3145 44.0371V44.03C70.6883 42.2756 70.8853 40.4501 70.8853 38.575C70.8853 22.6716 57.1929 10 40.5242 10ZM40.5242 13.6367C55.5145 13.6367 67.4062 24.8593 67.4062 38.575C67.4062 40.1873 67.2363 41.75 66.9169 43.2487C64.5386 54.4997 53.5371 62.732 40.2592 62.732C38.1119 62.732 35.9986 62.5615 34.1095 62.1069L33.3484 61.8725L30.773 63.4209C26.9269 65.4311 20.2948 68.2438 15.9798 68.187C15.3886 68.187 15.3343 68.0662 14.9198 68.0165C17.3932 66.7522 20.2472 64.458 21.6063 60.2388L21.6334 60.1465L22.2586 57.078L21.4907 56.3678C16.5098 51.8148 13.4792 45.5003 13.4792 38.575C13.4792 24.8735 25.5339 13.6367 40.5242 13.6367ZM25.6562 26.3651V30.0018H55.2291V26.3651H25.6562ZM25.6562 35.4568V39.0935H55.2291V35.4568H25.6562ZM73.9907 43.0853C73.9024 43.6678 73.8412 44.2502 73.7189 44.8255C73.583 45.4506 73.4064 46.0614 73.2297 46.6794C81.2413 49.9112 86.5144 56.4246 86.5144 63.6624C86.5144 68.8547 83.9322 73.7059 79.2299 77.3355L78.2853 78.0671L78.5775 79.2604C79.5153 83.0179 82.8042 84.9569 85.0806 86.2497C81.4723 86.7611 73.6306 85.9087 69.6894 81.0361L69.0302 80.2122L68.0245 80.4253C66.4412 80.752 64.6065 80.9154 62.4049 80.9154C51.5868 80.9154 42.8006 76.5329 39.3826 69.9769C37.9692 69.9485 36.6509 69.8491 35.4142 69.6928C38.6419 78.6283 49.0182 84.5521 62.4049 84.5521C64.4095 84.5521 66.1558 84.4242 67.7255 84.1756C71.5648 88.2385 77.8233 90 82.8925 90C83.2255 90 83.5584 89.9929 83.8778 89.9787C86.8201 89.8366 88.7364 89.1263 89.5858 87.8691C89.9595 87.3009 90.0887 86.6332 89.9392 85.9798C89.647 84.6799 88.5054 84.0407 86.9221 83.1528C85.366 82.272 83.3206 81.1143 82.3625 79.3883C87.2347 75.1833 89.9935 69.5294 89.9935 63.6624C89.9935 54.7412 83.6128 46.7788 73.9907 43.0853ZM25.6562 44.5485V48.1852H46.5312V44.5485H25.6562ZM69.1729 55.4586C68.3031 56.7371 67.345 57.9588 66.2917 59.0953H74.3645V55.4586H69.1729ZM59.7343 64.5503C57.3356 66.0561 54.7059 67.2849 51.913 68.187H74.3645V64.5503H59.7343Z" fill="#19376D"/>
</svg>
