<svg xmlns="http://www.w3.org/2000/svg" width="47" height="47" viewBox="0 0 47 47" fill="none">
  <path d="M23.4998 5.64001C12.7145 5.64001 3.75977 12.8908 3.75977 22.0313C3.75977 27.8343 7.52471 33.2166 13.4407 36.1313C13.4407 36.1319 13.4407 36.1325 13.4407 36.1331C13.462 36.1436 13.4575 36.1257 13.448 36.1551C13.1842 36.9745 12.2985 38.6444 11.445 39.8876C11.3346 40.0485 11.2771 40.2398 11.2803 40.4349C11.2835 40.6299 11.3473 40.8192 11.463 40.9764C11.5786 41.1336 11.7402 41.2509 11.9255 41.312C12.1108 41.3732 12.3105 41.3752 12.497 41.3178C14.792 40.6107 17.1707 39.301 18.5996 37.9085H18.6015C19.4564 38.0907 20.3267 38.218 21.2012 38.3032C23.449 40.1929 26.5527 41.3508 29.9311 41.3508C31.0322 41.3508 32.1367 41.2218 33.2174 40.9708C34.201 41.6564 35.2702 41.9145 36.2577 42.2504C36.4418 42.3136 36.641 42.3181 36.8278 42.2632C37.0146 42.2084 37.1798 42.0969 37.3005 41.9441C37.4212 41.7914 37.4915 41.6049 37.5017 41.4105C37.5119 41.2161 37.4615 41.0233 37.3574 40.8588C37.0208 40.3237 36.8192 40.0987 36.6341 39.6673C40.0902 37.7806 42.2502 34.5524 42.2502 31.0145C42.2502 30.0375 42.0778 29.1007 41.7802 28.211C42.715 26.3074 43.2398 24.2177 43.2398 22.0313C43.2398 12.8908 34.2851 5.64001 23.4998 5.64001ZM23.4998 7.52001C33.4471 7.52001 41.3598 14.1314 41.3598 22.0313C41.3598 23.3949 41.1129 24.7075 40.6768 25.9602C38.549 22.7864 34.491 20.68 29.9311 20.68C23.2356 20.68 17.6119 25.2167 17.6119 31.0145C17.6119 32.8818 18.202 34.6146 19.2165 36.1111C19.1398 36.0956 19.0616 36.0852 18.9852 36.0688C18.9834 36.0682 18.9815 36.0676 18.9797 36.067C18.8602 36.0424 18.7317 36.0266 18.5941 36.0266C18.1087 36.0266 17.6396 36.2229 17.2943 36.559C17.2937 36.559 17.2931 36.559 17.2925 36.559C16.639 37.1968 15.5154 37.8768 14.3017 38.4904C14.6102 37.8867 15.0758 37.2344 15.238 36.7298C15.5217 35.846 15.1056 34.8569 14.2705 34.4459C8.89147 31.7957 5.63977 27.0194 5.63977 22.0313C5.63977 14.1314 13.5524 7.52001 23.4998 7.52001ZM29.9311 22.56C35.7846 22.56 40.3702 26.4516 40.3702 31.0145C40.3702 33.8115 38.6768 36.4416 35.6812 38.0535C35.6806 38.0541 35.68 38.0547 35.6794 38.0553C35.0862 38.3754 34.8493 39.0093 34.8477 39.6581C34.6822 39.5762 34.3964 39.5184 34.2602 39.4213C34.2596 39.4207 34.259 39.42 34.2584 39.4194C33.96 39.2083 33.5949 39.089 33.2247 39.089C33.0873 39.089 32.9492 39.1052 32.8153 39.1367C31.8667 39.359 30.8962 39.4708 29.9311 39.4708C24.0775 39.4708 19.4919 35.5774 19.4919 31.0145C19.492 26.4516 24.0775 22.56 29.9311 22.56ZM25.1007 29.1933C24.8536 29.1882 24.608 29.2325 24.3783 29.3235C24.1486 29.4146 23.9393 29.5506 23.7628 29.7235C23.5862 29.8965 23.446 30.1029 23.3503 30.3307C23.2545 30.5585 23.2052 30.8032 23.2052 31.0503C23.2052 31.2974 23.2545 31.5421 23.3503 31.7699C23.446 31.9977 23.5862 32.2042 23.7628 32.3771C23.9393 32.55 24.1486 32.686 24.3783 32.7771C24.608 32.8681 24.8536 32.9124 25.1007 32.9074C25.3478 32.9124 25.5934 32.8681 25.8231 32.7771C26.0529 32.686 26.2621 32.55 26.4386 32.3771C26.6152 32.2042 26.7554 31.9977 26.8511 31.7699C26.9469 31.5421 26.9962 31.2974 26.9962 31.0503C26.9962 30.8032 26.9469 30.5585 26.8511 30.3307C26.7554 30.1029 26.6152 29.8965 26.4386 29.7235C26.2621 29.5506 26.0529 29.4146 25.8231 29.3235C25.5934 29.2325 25.3478 29.1882 25.1007 29.1933ZM30.3019 29.1933C30.0548 29.1882 29.8092 29.2325 29.5795 29.3235C29.3498 29.4146 29.1405 29.5506 28.964 29.7235C28.7875 29.8965 28.6472 30.1029 28.5515 30.3307C28.4557 30.5585 28.4064 30.8032 28.4064 31.0503C28.4064 31.2974 28.4557 31.5421 28.5515 31.7699C28.6472 31.9977 28.7875 32.2042 28.964 32.3771C29.1405 32.55 29.3498 32.686 29.5795 32.7771C29.8092 32.8681 30.0548 32.9124 30.3019 32.9074C30.549 32.9124 30.7946 32.8681 31.0243 32.7771C31.2541 32.686 31.4633 32.55 31.6398 32.3771C31.8164 32.2042 31.9566 31.9977 32.0523 31.7699C32.1481 31.5421 32.1974 31.2974 32.1974 31.0503C32.1974 30.8032 32.1481 30.5585 32.0523 30.3307C31.9566 30.1029 31.8164 29.8965 31.6398 29.7235C31.4633 29.5506 31.2541 29.4146 31.0243 29.3235C30.7946 29.2325 30.549 29.1882 30.3019 29.1933ZM35.5031 29.1933C35.2561 29.1882 35.0105 29.2325 34.7807 29.3235C34.551 29.4146 34.3417 29.5506 34.1652 29.7235C33.9887 29.8965 33.8484 30.1029 33.7527 30.3307C33.657 30.5585 33.6076 30.8032 33.6076 31.0503C33.6076 31.2974 33.657 31.5421 33.7527 31.7699C33.8484 31.9977 33.9887 32.2042 34.1652 32.3771C34.3417 32.55 34.551 32.686 34.7807 32.7771C35.0105 32.8681 35.2561 32.9124 35.5031 32.9074C35.7502 32.9124 35.9958 32.8681 36.2255 32.7771C36.4553 32.686 36.6645 32.55 36.8411 32.3771C37.0176 32.2042 37.1578 31.9977 37.2536 31.7699C37.3493 31.5421 37.3986 31.2974 37.3986 31.0503C37.3986 30.8032 37.3493 30.5585 37.2536 30.3307C37.1578 30.1029 37.0176 29.8965 36.8411 29.7235C36.6645 29.5506 36.4553 29.4146 36.2255 29.3235C35.9958 29.2325 35.7502 29.1882 35.5031 29.1933Z" fill="black" fill-opacity="0.4"/>
</svg>