<svg xmlns="http://www.w3.org/2000/svg" width="26" height="28" viewBox="0 0 26 28" fill="none">
  <path d="M10.2 0.828125C4.57266 0.828125 0 5.40078 0 11.0281C0 16.6555 4.57266 21.2281 10.2 21.2281C12.4266 21.2281 14.4844 20.5109 16.1625 19.2969L24.0563 27.1719L25.7438 25.4844L17.9438 17.6656C19.4766 15.8797 20.4 13.5617 20.4 11.0281C20.4 5.40078 15.8273 0.828125 10.2 0.828125ZM10.2 2.02812C15.1781 2.02812 19.2 6.05 19.2 11.0281C19.2 16.0062 15.1781 20.0281 10.2 20.0281C5.22188 20.0281 1.2 16.0062 1.2 11.0281C1.2 6.05 5.22188 2.02812 10.2 2.02812Z" fill="#111111"/>
</svg>