<svg xmlns="http://www.w3.org/2000/svg" width="17" height="18" viewBox="0 0 17 18" fill="none">
  <path d="M16.0732 0.502899C16.036 0.509223 16.0003 0.521869 15.9661 0.540839L0.726292 7.49646C0.59086 7.5597 0.503053 7.70197 0.500076 7.85847C0.4971 8.01656 0.58193 8.16041 0.714385 8.22997L6.39359 11.2399L9.22724 17.2723C9.29272 17.413 9.42815 17.5031 9.57698 17.4999C9.72432 17.4968 9.85826 17.4035 9.91779 17.2596L16.4661 1.072C16.5227 0.939207 16.5078 0.782705 16.426 0.665724C16.3456 0.547163 16.2102 0.48551 16.0732 0.502899ZM14.454 2.10902L6.59599 10.4558L1.78593 7.90116L14.454 2.10902ZM14.9898 2.67811L9.5368 16.1341L7.13177 11.0249L14.9898 2.67811Z" fill="white"/>
</svg>