<svg width="17" height="17" viewBox="0 0 17 17" fill="none" xmlns="http://www.w3.org/2000/svg">
<path d="M16.0732 0.00289938C16.036 0.00922267 16.0003 0.0218693 15.9661 0.0408392L0.726292 6.99646C0.59086 7.0597 0.503053 7.20197 0.500076 7.35847C0.4971 7.51656 0.58193 7.66041 0.714385 7.72997L6.39359 10.7399L9.22724 16.7723C9.29272 16.913 9.42815 17.0031 9.57698 16.9999C9.72432 16.9968 9.85826 16.9035 9.91779 16.7596L16.4661 0.571996C16.5227 0.439207 16.5078 0.282705 16.426 0.165724C16.3456 0.0471625 16.2102 -0.0144898 16.0732 0.00289938ZM14.454 1.60902L6.59599 9.95577L1.78593 7.40116L14.454 1.60902ZM14.9898 2.17811L9.5368 15.6341L7.13177 10.5249L14.9898 2.17811Z" fill="white"/>
</svg>
