<svg xmlns="http://www.w3.org/2000/svg" width="47" height="47" viewBox="0 0 47 47" fill="none">
  <path d="M20.8728 1.88001C20.65 1.88012 20.4344 1.95938 20.2646 2.10363C20.0948 2.24788 19.9818 2.44776 19.9456 2.66762L19.0313 8.2654C17.9319 8.58521 16.8836 9.01674 15.8955 9.55422L11.2763 6.25504C11.0955 6.1259 10.8747 6.065 10.6532 6.08315C10.4318 6.1013 10.2239 6.19733 10.0664 6.35419L6.40926 10.0077C6.25297 10.1641 6.15681 10.3706 6.13767 10.5908C6.11853 10.8111 6.17764 11.0311 6.30461 11.2121L9.55422 15.8607C9.00845 16.8545 8.56736 17.9087 8.23969 19.0185L2.66578 19.9456C2.44659 19.9826 2.24758 20.0959 2.10406 20.2657C1.96054 20.4354 1.88181 20.6505 1.88184 20.8728V26.0428C1.88144 26.2637 1.95887 26.4778 2.10055 26.6473C2.24223 26.8168 2.4391 26.9311 2.6566 26.9699L8.23418 27.9577C8.56007 29.0655 8.99836 30.1205 9.54504 31.1155L6.25504 35.7182C6.1259 35.899 6.065 36.1198 6.08315 36.3413C6.1013 36.5627 6.19732 36.7706 6.35418 36.9281L10.0095 40.5852C10.1656 40.7413 10.3716 40.8375 10.5915 40.857C10.8113 40.8765 11.031 40.818 11.2121 40.6917L15.8698 37.4311C16.8608 37.9718 17.9117 38.4065 19.0148 38.7291L19.9456 44.3342C19.9822 44.5537 20.0954 44.7532 20.2652 44.8971C20.4349 45.041 20.6502 45.12 20.8728 45.12H26.0428C26.264 45.1203 26.4782 45.0426 26.6478 44.9006C26.8174 44.7585 26.9315 44.5612 26.9699 44.3434L27.9668 38.7163C29.0654 38.3887 30.1114 37.9475 31.0971 37.4036L35.7861 40.6936C35.9671 40.8205 36.1871 40.8796 36.4073 40.8605C36.6276 40.8414 36.8341 40.7452 36.9905 40.5889L40.6458 36.9299C40.8033 36.772 40.8996 36.5633 40.9174 36.341C40.9353 36.1187 40.8735 35.8973 40.7431 35.7163L37.3999 31.0751C37.9344 30.0941 38.3651 29.0543 38.685 27.9632L44.3416 26.9718C44.5594 26.9333 44.7567 26.8192 44.8987 26.6497C45.0408 26.4801 45.1185 26.2658 45.1182 26.0446V20.8746C45.118 20.6518 45.0388 20.4363 44.8945 20.2665C44.7503 20.0967 44.5504 19.9836 44.3305 19.9475L38.6832 19.024C38.3611 17.9341 37.9293 16.8962 37.3944 15.9157L40.6917 11.2176C40.8187 11.0366 40.8778 10.8166 40.8587 10.5963C40.8395 10.3761 40.7434 10.1696 40.5871 10.0132L36.9299 6.35786C36.772 6.20033 36.5633 6.10405 36.341 6.08623C36.1187 6.0684 35.8973 6.13019 35.7163 6.26055L31.0879 9.58911C30.1018 9.04733 29.0551 8.60852 27.954 8.28376L26.9699 2.65844C26.9318 2.44026 26.8179 2.24254 26.6483 2.10012C26.4787 1.95771 26.2643 1.87976 26.0428 1.88001H20.8728ZM21.6732 3.76001H25.2533L26.1896 9.10442C26.2208 9.28367 26.3033 9.45002 26.4271 9.58331C26.551 9.7166 26.7108 9.81109 26.8873 9.85532C28.2621 10.1979 29.5532 10.741 30.7318 11.4544C30.8893 11.5499 31.0715 11.597 31.2556 11.5898C31.4397 11.5826 31.6176 11.5215 31.7672 11.414L36.1661 8.25254L38.6979 10.7843L35.5658 15.2475C35.4612 15.3964 35.402 15.5724 35.3955 15.7542C35.389 15.9361 35.4354 16.1159 35.5291 16.2719C36.2355 17.4478 36.7712 18.7308 37.1135 20.098C37.158 20.2761 37.2538 20.4372 37.3888 20.5615C37.5239 20.6858 37.6924 20.7678 37.8736 20.7975L43.2382 21.6751V25.2552L37.8625 26.1988C37.6832 26.2306 37.5169 26.3138 37.3839 26.4383C37.2509 26.5628 37.157 26.7233 37.1135 26.9002C36.7752 28.2656 36.2391 29.5486 35.5327 30.7244C35.4379 30.882 35.3914 31.0638 35.3989 31.2476C35.4064 31.4313 35.4676 31.6088 35.575 31.7581L38.7511 36.1661L36.2194 38.6997L31.7636 35.5731C31.6139 35.4683 31.437 35.4094 31.2544 35.4035C31.0718 35.3976 30.8915 35.4451 30.7354 35.5401C29.5628 36.2535 28.2703 36.7992 26.9002 37.1465C26.7245 37.1908 26.5654 37.2849 26.442 37.4174C26.3185 37.55 26.236 37.7154 26.2043 37.8938L25.2552 43.24H21.6696L20.7847 37.9176C20.7545 37.7366 20.6721 37.5683 20.5474 37.4336C20.4228 37.2988 20.2615 37.2035 20.0833 37.1594C18.7077 36.8203 17.4108 36.2781 16.2242 35.5658C16.0684 35.4725 15.8889 35.4263 15.7074 35.4328C15.526 35.4393 15.3503 35.4983 15.2016 35.6025L10.7806 38.6997L8.24703 36.1625L11.3718 31.7948C11.4786 31.6451 11.5392 31.4675 11.546 31.2837C11.5529 31.1 11.5057 30.9183 11.4104 30.7611C10.6903 29.5713 10.1457 28.2745 9.80207 26.8928C9.7581 26.7168 9.66416 26.5573 9.53158 26.4335C9.39899 26.3098 9.23343 26.227 9.05484 26.1952L3.76184 25.2552V21.6696L9.05117 20.7902C9.23199 20.7602 9.4001 20.678 9.53481 20.5537C9.66953 20.4294 9.76498 20.2685 9.80942 20.0907C10.156 18.7043 10.7003 17.4076 11.4177 16.2205C11.5123 16.0647 11.5595 15.8847 11.5537 15.7025C11.5478 15.5202 11.4891 15.3437 11.3847 15.1942L8.2966 10.7806L10.832 8.24704L15.2144 11.3791C15.3635 11.4855 15.5404 11.5459 15.7234 11.5531C15.9063 11.5603 16.0874 11.5138 16.2444 11.4195C17.4247 10.7106 18.7247 10.1728 20.1017 9.83512C20.2807 9.79105 20.4428 9.69533 20.5678 9.55986C20.6928 9.4244 20.7753 9.25516 20.8048 9.07321L21.6732 3.76001ZM23.5 15.98C19.358 15.98 15.98 19.358 15.98 23.5C15.98 27.6421 19.358 31.02 23.5 31.02C27.642 31.02 31.02 27.6421 31.02 23.5C31.02 19.358 27.642 15.98 23.5 15.98ZM23.5 17.86C26.626 17.86 29.14 20.374 29.14 23.5C29.14 26.626 26.626 29.14 23.5 29.14C20.374 29.14 17.86 26.626 17.86 23.5C17.86 20.374 20.374 17.86 23.5 17.86Z" fill="#75747A"/>
</svg>