<?xml version="1.0" encoding="iso-8859-1"?><!-- Generator: Adobe Illustrator 19.0.1, SVG Export Plug-In . SVG Version: 6.00 Build 0)  --><svg xmlns="http://www.w3.org/2000/svg" xmlns:xlink="http://www.w3.org/1999/xlink" viewBox="0 0 50 50" width="50px" height="50px"><path d="M38,20v26H4V12h26l2-2H3c-0.553,0-1,0.448-1,1v36c0,0.552,0.447,1,1,1h36c0.553,0,1-0.448,1-1V18L38,20z"/><polyline style="fill:none;stroke:#000000;stroke-width:2;stroke-miterlimit:10;" points="43.343,10.554 20.843,33.054 16,34 16.946,29.157 39.446,6.657 "/><path d="M45.562,9.629c-0.004,0.003,1.362-1.362,1.362-1.362c1.434-1.434,1.434-3.758,0.002-5.191c-1.435-1.434-3.759-1.433-5.192,0c0,0-1.366,1.366-1.362,1.362L45.562,9.629z"/><polygon points="17.204,28.898 21.102,32.795 16.336,33.664 "/></svg>